# xmcd CD database file generated by Grip 2.96
# 
# Track frame offsets:
#       150
#       10982
#       29475
#       48047
#       87150
#       113225
#       129132
#       147787
#       163217
#       182650
#       194650
#       209359
#       228452
#       248977
# 
# Disc length: 3634 seconds
# 
# Revision: 0
# Processed by: cddbd v1.4PL0 Copyright (c) Steve Scherf et al.
# Submitted via: Grip 2.96
# 
DISCID=be0e300e
DTITLE=Rainer - DYO
DYEAR=1900
DGENRE=
TTITLE0=Rude World
TTITLE1=Trains
TTITLE2=Derailed
TTITLE3=Lament of Love
TTITLE4=Within You Without You (listen to this many times)
TTITLE5=The Good Book
TTITLE6=One Man Crusade
TTITLE7=Drive
TTITLE8=Curiouser and Curiouser
TTITLE9=VooDoo Music
TTITLE10=Some thing's
TTITLE11=Trouble Hit Me/No Rewind
TTITLE12=One Wrong Turn
TTITLE13=Should'n Worry Bout That
EXTD=
EXTT0=
EXTT1=
EXTT2=
EXTT3=
EXTT4=
EXTT5=
EXTT6=
EXTT7=
EXTT8=
EXTT9=
EXTT10=
EXTT11=
EXTT12=
EXTT13=
PLAYORDER=
